:SAMPLES-PER-SECOND 30
:FULLY-SPECIFIED
:DEGREES
211
root  4.326399856 38.58111224 4.404644328 3.539001465 -54.71299744 -6.684020996
lowerback  8.37417984 0.887081027 -2.349960089
upperback  2.544719934 0.8914260268 -1.652619958
thorax  -2.070080042 0.4266229868 -0.473277986
lowerneck  -6.081280231 5.989910126 -6.474349976
upperneck  12.48779964 7.946660042 6.37624979
head  4.195189953 3.962460041 3.402070045
lclavicle  0 -9.442270133e-015 7.951389973e-016
lhumerus  -20.39609909 -15.02530003 82.06150055
lradius  2.537636968e-031 -2.45545162e-031 135.9429932
lwrist  -7.062250077e-031 -3.531125038e-031 13.33619976
lhand  -1.496451383e-031 -27.76390076 20.11240005
lfingers  90 7.125020027 -90
lthumb  89.89689403 5.08795885 91.16245106
rclavicle  0 -9.442270133e-015 7.951389973e-016
rhumerus  -22.56640053 10.97309971 -79.70439911
rradius  -2.343853264e-031 2.641059619e-031 131.5879974
rwrist  3.531125038e-031 -0 -1.525339961
rhand  -7.920061211e-032 -33.2840004 9.303460121
rfingers  -90 -7.125020027 -90
rthumb  -92.93752616 -24.25625642 -97.11982154
rfemur  0.4065369964 14.01669979 17.20770073
rtibia  -0 0 44.75550079
rfoot  -0 -25.76569939 -14.51019955
rtoes  5.373923086 19.29304026 -105.8922705
lfemur  -22.48900032 2.33446002 -0.2253179997
ltibia  -0 0 54.57749939
lfoot  4.582465305e-032 -15.58850002 1.97183001
ltoes  -4.250644065 -19.5611806 -102.515957
212
root  4.312888844 38.62955589 4.27233328 4.499023438 -55.30400085 -7.474975586
lowerback  8.34251976 0.9328460097 -1.933349967
upperback  2.446680069 0.9964950085 -1.387230039
thorax  -2.152719975 0.4809040129 -0.444193989
lowerneck  -6.079110146 5.946630001 -6.095870018
upperneck  12.50860023 7.887350082 6.025839806
head  4.236800194 3.928900003 3.234709978
lclavicle  0 -9.442270133e-015 7.951389973e-016
lhumerus  -20.07679939 -15.00129986 82.3973999
lradius  2.545979432e-031 -2.446800517e-031 136.1380005
lwrist  -7.062250077e-031 -0 13.08670044
lhand  -1.496451383e-031 -27.76390076 20.11240005
lfingers  90 7.125020027 -90
lthumb  89.89689403 5.08795885 91.16245106
rclavicle  0 -9.442270133e-015 7.951389973e-016
rhumerus  -22.93059921 10.93369961 -80.09500122
rradius  -2.359621926e-031 2.626980854e-031 131.9309998
rwrist  0 -3.531125038e-031 -1.211130023
rhand  -7.920061211e-032 -33.2840004 9.303460121
rfingers  -90 -7.125020027 -90
rthumb  -92.93752616 -24.25625642 -97.11982154
rfemur  -0.01328019984 14.16279984 17.4109993
rtibia  -0 0 44.31190109
rfoot  -0 -25.6128006 -13.57199955
rtoes  5.373923086 19.29304026 -105.8922705
lfemur  -22.95879936 2.778589964 0.4784789979
ltibia  -0 0 54.97449875
lfoot  4.562042447e-032 -14.64099979 2.551670074
ltoes  -4.250644065 -19.5611806 -102.515957
213
root  4.311711018 38.70377728 4.139288955 5.375976562 -55.83799744 -8.333984375
lowerback  8.377539635 1.015390038 -1.391960025
upperback  2.472990036 1.157420039 -1.173609972
thorax  -2.139940023 0.5604730248 -0.5441629887
lowerneck  -6.069680214 5.872119904 -5.79117012
upperneck  12.47599983 7.785739899 5.754580021
head  4.256289959 3.876660109 3.099430084
lclavicle  0 -9.442270133e-015 7.951389973e-016
lhumerus  -19.43969917 -14.97130013 82.37259674
lradius  2.563719385e-031 -2.42820653e-031 136.5549927
lwrist  -7.062250077e-031 1.765562519e-031 13.26200008
lhand  -1.496451383e-031 -27.76390076 20.11240005
lfingers  90 7.125020027 -90
lthumb  89.89689403 5.08795885 91.16245106
rclavicle  0 -9.442270133e-015 7.951389973e-016
rhumerus  -23.00959969 10.67199993 -80.42700195
rradius  -2.371061794e-031 2.616660086e-031 132.1809998
rwrist  7.062250077e-031 -3.531125038e-031 -1.113569975
rhand  -7.920061211e-032 -33.2840004 9.303460121
rfingers  -90 -7.125020027 -90
rthumb  -92.93752616 -24.25625642 -97.11982154
rfemur  -0.4815239906 14.08380032 17.58259964
rtibia  -0 0 44.12279892
rfoot  -0 -25.16799927 -12.26039982
rtoes  5.373923086 19.29304026 -105.8922705
lfemur  -23.40819931 3.379529953 1.117599964
ltibia  -0 0 55.44260025
lfoot  4.536321639e-032 -13.34090042 3.219039917
ltoes  -4.250644065 -19.5611806 -102.515957
214
root  4.312888844 38.81866575 4.004866683 5.572021484 -56.2559967 -8.476989746
lowerback  8.43653965 1.042269945 -1.285940051
upperback  2.561939955 1.205000043 -1.018740058
thorax  -2.081959963 0.5830019712 -0.448781997
lowerneck  -5.879779816 5.853499889 -5.836369991
upperneck  12.25380039 7.777840137 5.597579956
head  4.162940025 3.862370014 3.04479003
lclavicle  0 -9.442270133e-015 7.951389973e-016
lhumerus  -18.6298008 -14.91909981 82.18250275
lradius  2.588294224e-031 -2.401994389e-031 137.1380005
lwrist  -7.062250077e-031 -0 13.30379963
lhand  -1.496451383e-031 -27.76390076 20.11240005
lfingers  90 7.125020027 -90
lthumb  89.89689403 5.08795885 91.16245106
rclavicle  0 -9.442270133e-015 7.951389973e-016
rhumerus  -22.8239994 10.5564003 -80.66490173
rradius  -2.380818676e-031 2.607785741e-031 132.3950043
rwrist  7.062250077e-031 -3.531125038e-031 -1.386909962
rhand  -7.920061211e-032 -33.2840004 9.303460121
rfingers  -90 -7.125020027 -90
rthumb  -92.93752616 -24.25625642 -97.11982154
rfemur  -1.014150023 13.78590012 17.29249954
rtibia  -0 0 44.18199921
rfoot  -0 -24.3192997 -10.73579979
rtoes  5.373923086 19.29304026 -105.8922705
lfemur  -23.85079956 3.739989996 1.200029969
ltibia  -0 0 55.87820053
lfoot  4.510209724e-032 -11.86139965 3.726320028
ltoes  -4.250644065 -19.5611806 -102.515957
